<svg xmlns="http://www.w3.org/2000/svg" xmlns:xlink="http://www.w3.org/1999/xlink" version="1.1" id="Layer_1" x="0px" y="0px" width="358.199px" height="81.344px" viewBox="0 0 358.199 81.344" enable-background="new 0 0 358.199 81.344" xml:space="preserve">
<g>
	<g>
		<path fill="#ffffff" d="M57.749 80.903c-5.381 0-10.761 0.001-16.142 0.002c-0.021-16.669-0.043-33.338-0.064-50.006 c-0.004-3.193-0.852-4.739-2.542-4.631c-1.45 0.093-2.173 1.759-2.169 4.998c0.02 16.5 0 33.1 0.1 49.6 c-5.199 0-10.398 0.001-15.598 0.001c-0.013-16.259-0.026-32.518-0.04-48.776c-0.002-3.115-0.818-4.615-2.447-4.497 c-1.509 0.11-2.263 1.744-2.261 4.9c0.011 16.1 0 32.2 0 48.374c-5.38 0-10.761 0.001-16.142 0 c0-21.583 0-43.166 0-64.749c15.398-1.549 30.815-2.898 46.246-4.047c7.306-0.556 11 5.2 11 17.3 C57.698 46.6 57.7 63.8 57.7 80.903z"/>
		<path fill="#ffffff" d="M98.435 57.644c0.012 8.325-2.036 14.487-6.142 18.442c-3.32 3.221-7.609 4.815-12.869 4.8 c-5.261 0-9.557-1.586-12.885-4.715c-4.118-3.849-6.182-9.775-6.193-17.849c-0.013-8.206-0.024-16.412-0.037-24.617 c-0.012-8.07 2.032-14.139 6.138-18.25c3.317-3.339 7.608-5.188 12.869-5.484c5.26-0.296 9.6 1.1 12.9 4.1 c4.119 3.8 6.2 9.8 6.2 18.151C98.411 40.7 98.4 49.2 98.4 57.644z M82.297 62.1 c-0.018-11.614-0.035-23.228-0.053-34.842c-0.005-3.051-0.975-4.537-2.909-4.447c-1.937 0.09-2.9 1.657-2.896 4.7 c0.018 11.6 0 23.1 0.1 34.682c0.005 3 1 4.5 2.9 4.525C81.336 66.7 82.3 65.1 82.3 62.087z"/>
		<path fill="#ffffff" d="M138.006 80.898c-5.381 0-10.762 0-16.143 0c-0.021-17.738-0.04-35.477-0.06-53.215 c-0.004-3.397-0.854-5.076-2.547-5.03c-1.514 0.041-2.268 1.792-2.264 5.25c0.021 17.7 0 35.3 0.1 53 c-5.381 0-10.762 0-16.142 0c-0.034-23.997-0.067-47.993-0.101-71.99c8.712-0.383 17.426-0.703 26.143-0.959 c7.323-0.218 11 6.1 11 18.789C137.976 44.8 138 62.8 138 80.898z"/>
		<path fill="#ffffff" d="M178.539 57.047c0.001 8.536-2.057 14.833-6.167 18.894c-3.324 3.305-7.616 4.956-12.876 5 s-9.555-1.65-12.881-4.936c-4.115-4.04-6.176-10.291-6.183-18.775c-0.007-8.623-0.014-17.246-0.021-25.868 c-0.007-8.482 2.045-14.783 6.16-18.9c3.325-3.347 7.625-5.067 12.893-5.126s9.566 1.6 12.9 4.9 c4.117 4 6.2 10.3 6.2 18.88C178.539 39.7 178.5 48.4 178.5 57.047z M162.392 61.4 c-0.005-12.032-0.009-24.064-0.014-36.097c-0.001-3.161-0.971-4.737-2.907-4.719c-1.938 0.018-2.905 1.61-2.904 4.8 c0.006 12 0 24 0 36.065c0.002 3.2 1 4.7 2.9 4.733C161.425 66.2 162.4 64.6 162.4 61.406z"/>
		<path fill="#ffffff" d="M218.006 57.242c-0.007 8.501-1.948 14.766-5.819 18.814C209.101 79.3 205 81 200 81 c-5.26 0-9.552-1.652-12.876-4.959c-4.112-4.066-6.167-10.373-6.167-18.916c0.001-22.912 0.001-45.824 0.002-68.736 c5.392 0 10.8 0 16.2 0.108c-0.002 6.222-0.004 12.444-0.007 18.666c6.964 0.1 13.9 0.2 20.9 0.3 c-0.002 3.285-0.005 6.57-0.008 9.855c-6.961-0.129-13.922-0.224-20.885-0.284c-0.005 15.297-0.011 30.594-0.017 45.9 c-0.001 3.1 0.8 4.6 2.4 4.646c1.873 0 2.813-1.643 2.814-4.941c0.007-13.327 0.013-26.653 0.02-39.98 c5.205 0.1 10.4 0.1 15.6 0.212C218.024 34.3 218 45.8 218 57.242z"/>
		<path fill="#ffffff" d="M258.645 57.615c-0.012 8.331-2.075 14.458-6.191 18.427c-3.331 3.228-7.624 4.856-12.885 4.9 c-5.26 0-9.551-1.632-12.872-4.915c-4.108-4.033-6.159-10.302-6.152-18.784c0.008-8.618 0.015-17.235 0.021-25.853 c0.008-8.479 2.069-14.705 6.19-18.631c3.332-3.194 7.632-4.705 12.896-4.528c5.267 0.2 9.6 2 12.9 5.3 c4.109 4.1 6.2 10.4 6.1 18.69C258.669 40.7 258.7 49.1 258.6 57.615z M242.494 61.7 c0.014-11.865 0.028-23.729 0.042-35.594c0.004-3.116-0.963-4.706-2.898-4.76c-1.938-0.054-2.907 1.487-2.91 4.6 c-0.014 11.896-0.026 23.793-0.04 35.689c-0.003 3.1 1 4.7 2.9 4.71S242.49 64.8 242.5 61.679z"/>
		<path fill="#ffffff" d="M319.121 63.166C319.106 75 315.4 81 308.1 81c-12.031 0-24.062 0-36.094 0 c-7.315 0.01-10.964-6.247-10.946-18.771c0.025-17.763 0.051-35.526 0.076-53.289c5.384 0.2 10.8 0.5 16.1 0.8 c-0.026 17.378-0.053 34.756-0.079 52.135c-0.005 3.3 0.8 5 2.5 5.012c1.512 0 2.27-1.695 2.275-5.138 c0.026-17.246 0.053-34.492 0.08-51.738c5.38 0.3 10.8 0.6 16.1 1c-0.026 17.003-0.052 34.006-0.077 51 c-0.005 3.4 0.7 5.1 2.3 5.121c1.692 0 2.541-1.589 2.546-4.838c0.025-16.989 0.05-33.978 0.075-50.966 c5.377 0.4 10.8 0.8 16.1 1.19C319.164 29.4 319.1 46.3 319.1 63.166z"/>
		<path fill="#ffffff" d="M358.637 80.91c-5.381-0.001-10.761-0.001-16.142-0.002c0.011-16.156 0.021-32.312 0.032-48.467 c0.002-3.093-0.842-4.704-2.531-4.827c-1.508-0.11-2.266 1.426-2.268 4.604c-0.014 16.229-0.026 32.459-0.04 48.7 c-5.381 0-10.761-0.001-16.142-0.002c0.027-22.693 0.056-45.386 0.083-68.079c8.694 0.7 17.4 1.4 26.1 2.3 c7.294 0.7 10.9 6.7 10.9 17.934C358.637 49 358.6 64.9 358.6 80.91z"/>
	</g>
</g>
</svg>
