<?xml version="1.0" encoding="utf-8"?>
<!-- Generator: Adobe Illustrator 15.0.0, SVG Export Plug-In . SVG Version: 6.00 Build 0)  -->
<!DOCTYPE svg PUBLIC "-//W3C//DTD SVG 1.1//EN" "http://www.w3.org/Graphics/SVG/1.1/DTD/svg11.dtd">
<svg version="1.1" id="Layer_1" xmlns="http://www.w3.org/2000/svg" xmlns:xlink="http://www.w3.org/1999/xlink" x="0px" y="0px"
	 width="358.199px" height="81.344px" viewBox="0 0 358.199 81.344" enable-background="new 0 0 358.199 81.344"
	 xml:space="preserve">
<g>
	<g>
		<path fill="#111111" d="M57.749,80.903c-5.381,0-10.761,0.001-16.142,0.002c-0.021-16.669-0.043-33.338-0.064-50.006
			c-0.004-3.193-0.852-4.739-2.542-4.631c-1.45,0.093-2.173,1.759-2.169,4.998c0.02,16.547,0.04,33.093,0.06,49.64
			c-5.199,0-10.398,0.001-15.598,0.001c-0.013-16.259-0.026-32.518-0.04-48.776c-0.002-3.115-0.818-4.615-2.447-4.497
			c-1.509,0.11-2.263,1.744-2.261,4.9c0.011,16.125,0.021,32.249,0.032,48.374c-5.38,0-10.761,0.001-16.142,0.002
			c0-21.583,0-43.166,0-64.749c15.398-1.549,30.815-2.898,46.246-4.047c7.306-0.556,10.973,5.248,10.99,17.341
			C57.698,46.604,57.724,63.753,57.749,80.903z"/>
		<path fill="#111111" d="M98.435,57.644c0.012,8.325-2.036,14.487-6.142,18.442c-3.32,3.221-7.609,4.815-12.869,4.814
			c-5.261,0-9.557-1.586-12.885-4.715c-4.118-3.849-6.182-9.775-6.193-17.849c-0.013-8.206-0.024-16.412-0.037-24.617
			c-0.012-8.07,2.032-14.139,6.138-18.25c3.317-3.339,7.608-5.188,12.869-5.484c5.26-0.296,9.556,1.08,12.887,4.137
			c4.119,3.756,6.185,9.83,6.196,18.151C98.411,40.731,98.423,49.188,98.435,57.644z M82.297,62.087
			c-0.018-11.614-0.035-23.228-0.053-34.842c-0.005-3.051-0.975-4.537-2.909-4.447c-1.937,0.09-2.9,1.657-2.896,4.693
			c0.018,11.561,0.035,23.122,0.053,34.682c0.005,3.039,0.974,4.546,2.909,4.525C81.336,66.677,82.302,65.141,82.297,62.087z"/>
		<path fill="#111111" d="M138.006,80.898c-5.381,0-10.762,0-16.143,0c-0.021-17.738-0.04-35.477-0.06-53.215
			c-0.004-3.397-0.854-5.076-2.547-5.03c-1.514,0.041-2.268,1.792-2.264,5.25c0.021,17.665,0.042,35.33,0.063,52.995
			c-5.381,0-10.762,0-16.142,0c-0.034-23.997-0.067-47.993-0.101-71.99c8.712-0.383,17.426-0.703,26.143-0.959
			c7.323-0.218,10.992,6.068,11.003,18.789C137.976,44.792,137.99,62.845,138.006,80.898z"/>
		<path fill="#111111" d="M178.539,57.047c0.001,8.536-2.057,14.833-6.167,18.894c-3.324,3.305-7.616,4.956-12.876,4.956
			s-9.555-1.65-12.881-4.936c-4.115-4.04-6.176-10.291-6.183-18.775c-0.007-8.623-0.014-17.246-0.021-25.868
			c-0.007-8.482,2.045-14.783,6.16-18.9c3.325-3.347,7.625-5.067,12.893-5.126s9.566,1.566,12.897,4.857
			c4.117,4.046,6.177,10.348,6.177,18.88C178.539,39.701,178.539,48.375,178.539,57.047z M162.392,61.406
			c-0.005-12.032-0.009-24.064-0.014-36.097c-0.001-3.161-0.971-4.737-2.907-4.719c-1.938,0.018-2.905,1.61-2.904,4.768
			c0.006,12.022,0.012,24.043,0.018,36.065c0.002,3.16,0.97,4.737,2.906,4.733C161.425,66.151,162.393,64.569,162.392,61.406z"/>
		<path fill="#111111" d="M218.006,57.242c-0.007,8.501-1.948,14.766-5.819,18.814C209.101,79.35,205.049,81,200.031,81
			c-5.26,0-9.552-1.652-12.876-4.959c-4.112-4.066-6.167-10.373-6.167-18.916c0.001-22.912,0.001-45.824,0.002-68.736
			c5.392,0.005,10.782,0.041,16.173,0.108c-0.002,6.222-0.004,12.444-0.007,18.666c6.964,0.069,13.927,0.178,20.889,0.328
			c-0.002,3.285-0.005,6.57-0.008,9.855c-6.961-0.129-13.922-0.224-20.885-0.284c-0.005,15.297-0.011,30.594-0.017,45.891
			c-0.001,3.094,0.814,4.643,2.448,4.646c1.873,0.003,2.813-1.643,2.814-4.941c0.007-13.327,0.013-26.653,0.02-39.98
			c5.205,0.052,10.41,0.123,15.615,0.212C218.024,34.341,218.015,45.792,218.006,57.242z"/>
		<path fill="#111111" d="M258.645,57.615c-0.012,8.331-2.075,14.458-6.191,18.427c-3.331,3.228-7.624,4.856-12.885,4.856
			c-5.26,0-9.551-1.632-12.872-4.915c-4.108-4.033-6.159-10.302-6.152-18.784c0.008-8.618,0.015-17.235,0.021-25.853
			c0.008-8.479,2.069-14.705,6.19-18.631c3.332-3.194,7.632-4.705,12.896-4.528c5.267,0.177,9.559,1.972,12.884,5.335
			c4.109,4.139,6.155,10.362,6.145,18.69C258.669,40.681,258.656,49.148,258.645,57.615z M242.494,61.679
			c0.014-11.865,0.028-23.729,0.042-35.594c0.004-3.116-0.963-4.706-2.898-4.76c-1.938-0.054-2.907,1.487-2.91,4.612
			c-0.014,11.896-0.026,23.793-0.04,35.689c-0.003,3.128,0.962,4.697,2.897,4.71S242.49,64.797,242.494,61.679z"/>
		<path fill="#111111" d="M319.121,63.166C319.106,75.039,315.44,80.983,308.127,81c-12.031,0-24.062,0-36.094,0
			c-7.315,0.01-10.964-6.247-10.946-18.771c0.025-17.763,0.051-35.526,0.076-53.289c5.384,0.246,10.766,0.517,16.147,0.811
			c-0.026,17.378-0.053,34.756-0.079,52.135c-0.005,3.325,0.84,4.994,2.531,5.012c1.512,0.016,2.27-1.695,2.275-5.138
			c0.026-17.246,0.053-34.492,0.08-51.738c5.38,0.309,10.76,0.643,16.138,1c-0.026,17.003-0.052,34.006-0.077,51.009
			c-0.005,3.396,0.749,5.102,2.26,5.121c1.692,0.022,2.541-1.589,2.546-4.838c0.025-16.989,0.05-33.978,0.075-50.966
			c5.377,0.373,10.752,0.769,16.126,1.19C319.164,29.414,319.143,46.29,319.121,63.166z"/>
		<path fill="#111111" d="M358.637,80.91c-5.381-0.001-10.761-0.001-16.142-0.002c0.011-16.156,0.021-32.312,0.032-48.467
			c0.002-3.093-0.842-4.704-2.531-4.827c-1.508-0.11-2.266,1.426-2.268,4.604c-0.014,16.229-0.026,32.459-0.04,48.688
			c-5.381,0-10.761-0.001-16.142-0.002c0.027-22.693,0.056-45.386,0.083-68.079c8.694,0.692,17.383,1.448,26.066,2.268
			c7.294,0.712,10.939,6.713,10.94,17.934C358.637,48.988,358.637,64.949,358.637,80.91z"/>
	</g>
</g>
</svg>
